<svg width="1024" height="1024" viewBox="0 0 1024 1024" fill="none" xmlns="http://www.w3.org/2000/svg">
  <title>비누 앱 아이콘 - 브랜드 워드마크</title>
  <defs>
    <linearGradient id="bg" x1="150" y1="96" x2="878" y2="924" gradientUnits="userSpaceOnUse">
      <stop offset="0" stop-color="#E7F7FF"/>
      <stop offset="0.46" stop-color="#A7D4F3"/>
      <stop offset="1" stop-color="#77BCE2"/>
    </linearGradient>
    <radialGradient id="bgGlow" cx="0" cy="0" r="1" gradientUnits="userSpaceOnUse" gradientTransform="translate(310 246) rotate(53.6) scale(642 538)">
      <stop offset="0" stop-color="#FFFFFF" stop-opacity="0.82"/>
      <stop offset="0.48" stop-color="#FFFFFF" stop-opacity="0.24"/>
      <stop offset="1" stop-color="#FFFFFF" stop-opacity="0"/>
    </radialGradient>
    <filter id="tileShadow" x="54" y="62" width="916" height="916" filterUnits="userSpaceOnUse" color-interpolation-filters="sRGB">
      <feDropShadow dx="0" dy="28" stdDeviation="38" flood-color="#2E4B66" flood-opacity="0.2"/>
    </filter>
    <filter id="wordmarkShadow" x="-30" y="-22" width="306" height="188" filterUnits="userSpaceOnUse" color-interpolation-filters="sRGB">
      <feDropShadow dx="0" dy="18" stdDeviation="18" flood-color="#1A3348" flood-opacity="0.14"/>
      <feDropShadow dx="0" dy="-7" stdDeviation="7" flood-color="#FFFFFF" flood-opacity="0.36"/>
    </filter>
  </defs>

  <g filter="url(#tileShadow)">
    <rect x="96" y="96" width="832" height="832" rx="210" fill="url(#bg)"/>
    <rect x="96" y="96" width="832" height="832" rx="210" fill="url(#bgGlow)"/>
  </g>

  <path d="M178 314C178 238.9 238.9 178 314 178H710C785.1 178 846 238.9 846 314" stroke="#FFFFFF" stroke-opacity="0.28" stroke-width="26" stroke-linecap="round"/>

  <g transform="translate(231 337) scale(2.38)" filter="url(#wordmarkShadow)" fill="none" stroke="#2E4B66" stroke-width="20" stroke-linecap="round" stroke-linejoin="round">
    <path d="M30 27V82C30 105 49 121 75 121H82C101 121 112 108 112 89V66H45"/>
    <path d="M112 27V66"/>
    <path d="M150 27V124"/>
    <path d="M185 27V56C185 66 193 74 203 74H232"/>
    <path d="M170 98H236"/>
    <path d="M203 98V126"/>
  </g>
</svg>
